<!DOCTYPE svg PUBLIC "-//W3C//DTD SVG 1.1//EN" "http://www.w3.org/Graphics/SVG/1.1/DTD/svg11.dtd">
<!-- Uploaded to: SVG Repo, www.svgrepo.com, Transformed by: SVG Repo Mixer Tools -->
<svg fill="#ffffff" version="1.1" id="Layer_1" xmlns:x="&amp;ns_extend;" xmlns:i="&amp;ns_ai;" xmlns:graph="&amp;ns_graphs;" xmlns="http://www.w3.org/2000/svg" xmlns:xlink="http://www.w3.org/1999/xlink" width="800px" height="800px" viewBox="0 0 24 24" enable-background="new 0 0 24 24" xml:space="preserve" stroke="#ffffff">
<g id="SVGRepo_bgCarrier" stroke-width="0"/>
<g id="SVGRepo_tracerCarrier" stroke-linecap="round" stroke-linejoin="round"/>
<g id="SVGRepo_iconCarrier"> <metadata> <sfw> <slices> </slices> <slicesourcebounds width="505" height="984" bottomleftorigin="true" x="0" y="-552"> </slicesourcebounds> </sfw> </metadata> <g> <g> <g> <path d="M23,23H1c-0.4,0-0.7-0.2-0.9-0.5c-0.2-0.3-0.2-0.7,0-1l11-20c0.4-0.6,1.4-0.6,1.8,0l11,20c0.2,0.3,0.2,0.7,0,1 C23.7,22.8,23.4,23,23,23z M2.7,21h18.6L12,4.1L2.7,21z"/> </g> </g> <g> <g> <path d="M12,16c-0.6,0-1-0.4-1-1v-5c0-0.6,0.4-1,1-1s1,0.4,1,1v5C13,15.6,12.6,16,12,16z"/> </g> </g> <g> <g> <circle cx="12" cy="18" r="1"/> </g> <g> <path d="M12,19.5c-0.8,0-1.5-0.7-1.5-1.5s0.7-1.5,1.5-1.5s1.5,0.7,1.5,1.5S12.8,19.5,12,19.5z M12,17.5c-0.3,0-0.5,0.2-0.5,0.5 s0.2,0.5,0.5,0.5s0.5-0.2,0.5-0.5S12.3,17.5,12,17.5z"/> </g> </g> </g> </g>
</svg>